<svg xmlns="http://www.w3.org/2000/svg" viewBox="0 0 85.98 88.31"><defs><style>.a{fill:#29abe2;}</style></defs><circle class="a" cx="42.99" cy="44.59" r="18.16"/><path class="a" d="M20,45.68a2.33,2.33,0,0,0,2.29-1.87,28.72,28.72,0,0,1,56.4,0A2.33,2.33,0,0,0,81,45.68H91.12A2.34,2.34,0,0,0,93.43,43,43.48,43.48,0,0,0,7.51,43a2.34,2.34,0,0,0,2.31,2.71Z" transform="translate(-7.48 -6.22)"/><path class="a" d="M20,55.06a2.33,2.33,0,0,1,2.29,1.88,28.72,28.72,0,0,0,56.4,0A2.33,2.33,0,0,1,81,55.06H91.12a2.34,2.34,0,0,1,2.31,2.72,43.48,43.48,0,0,1-85.92,0,2.35,2.35,0,0,1,2.31-2.72Z" transform="translate(-7.48 -6.22)"/></svg>